<svg xmlns="http://www.w3.org/2000/svg" xmlns:xlink="http://www.w3.org/1999/xlink" width="1080" zoomAndPan="magnify" viewBox="0 0 810 809.999993" height="1080" preserveAspectRatio="xMidYMid meet" version="1.0"><defs><clipPath id="a2cbd285ec"><path d="M 40 601 L 791.136719 601 L 791.136719 705.636719 L 40 705.636719 Z M 40 601 " clip-rule="nonzero"/></clipPath><clipPath id="a3a9ef92db"><path d="M 18.636719 224 L 791.136719 224 L 791.136719 510 L 18.636719 510 Z M 18.636719 224 " clip-rule="nonzero"/></clipPath></defs><path fill="#ff0786" d="M 200.121094 644.652344 L 200.121094 665.527344 L 200.050781 665.679688 L 199.871094 665.9375 C 199.871094 665.9375 199.808594 665.992188 199.792969 666.007812 C 198.597656 667.003906 197.363281 667.875 196.015625 668.632812 C 193.371094 670.128906 190.523438 671.078125 187.5 671.5 C 185.503906 671.78125 183.558594 671.859375 181.578125 671.730469 C 179.523438 671.59375 177.542969 671.199219 175.597656 670.527344 C 173.292969 669.742188 171.191406 668.582031 169.265625 667.074219 C 168.695312 666.621094 168.214844 666.199219 167.679688 665.722656 C 167.578125 665.628906 167.570312 665.429688 167.664062 665.3125 C 168.886719 663.734375 169.789062 662.007812 169.988281 659.976562 C 170.304688 656.789062 170.03125 653.628906 167.9375 651.058594 C 167.027344 649.949219 165.839844 649.292969 164.480469 648.757812 L 164.480469 648.648438 C 166.175781 647.726562 167.464844 646.433594 168.09375 644.570312 C 169.390625 640.703125 169.28125 637.089844 167.207031 633.492188 C 167.058594 633.226562 167.058594 632.976562 167.277344 632.761719 C 170.691406 629.4375 174.644531 627.304688 179.367188 626.613281 C 182.84375 626.105469 186.503906 626.183594 189.886719 627.035156 L 190.023438 627.070312 C 192.570312 627.707031 194.9375 628.742188 197.132812 630.132812 C 198.089844 630.738281 199.058594 631.476562 199.921875 632.199219 C 200.109375 632.347656 200.101562 632.65625 199.9375 632.835938 L 196.375 636.734375 L 194.1875 639.128906 C 194.066406 639.265625 193.8125 639.214844 193.691406 639.128906 C 193.113281 638.707031 192.585938 638.328125 191.976562 637.964844 C 188.945312 636.148438 185.554688 635.453125 182.019531 635.726562 C 178.824219 635.976562 176.003906 637.121094 173.746094 639.414062 C 172.078125 641.109375 170.957031 643.175781 170.453125 645.507812 C 170.03125 647.476562 169.976562 649.816406 170.324219 651.796875 C 170.691406 653.878906 171.476562 655.785156 172.707031 657.480469 C 173.679688 658.820312 174.890625 659.886719 176.347656 660.695312 C 177.257812 661.195312 178.402344 661.644531 179.386719 661.886719 C 182.441406 662.632812 185.601562 662.617188 188.585938 661.660156 C 189.257812 661.445312 189.851562 661.128906 190.480469 660.765625 C 190.632812 660.679688 190.78125 660.421875 190.78125 660.273438 L 190.78125 659.519531 C 190.78125 659.519531 190.78125 654.378906 190.78125 654.378906 L 190.78125 653.425781 C 190.78125 653.3125 190.617188 653.121094 190.496094 653.121094 L 189.15625 653.121094 C 189.15625 653.121094 185.195312 653.140625 185.195312 653.140625 C 184.960938 653.140625 184.753906 652.960938 184.753906 652.738281 L 184.753906 651.644531 C 184.753906 651.644531 184.753906 645.875 184.753906 645.875 L 184.753906 644.78125 C 184.753906 644.566406 184.953125 644.363281 185.195312 644.363281 L 188.964844 644.363281 C 188.964844 644.363281 195.695312 644.363281 195.695312 644.363281 L 199.664062 644.363281 C 199.785156 644.359375 199.992188 644.449219 200.050781 644.515625 L 200.128906 644.664062 Z M 101.355469 625.820312 L 101.226562 625.890625 C 101.113281 625.949219 100.910156 626.125 100.882812 626.269531 L 100.703125 627.085938 L 97.9375 637.527344 L 95.863281 645.359375 C 95.8125 645.558594 95.847656 645.78125 95.890625 645.945312 L 96.742188 649.257812 L 98.402344 655.644531 L 101.476562 644.105469 L 104.839844 631.398438 L 106.210938 626.226562 C 106.226562 626.160156 106.210938 625.976562 106.160156 625.949219 C 106.113281 625.917969 106.027344 625.898438 105.890625 625.898438 L 102.007812 625.898438 C 101.949219 625.898438 101.847656 625.824219 101.882812 625.832031 L 101.355469 625.832031 Z M 125.402344 681.519531 C 127.148438 681.300781 127.863281 679.359375 127.304688 677.84375 C 126.976562 676.929688 126.179688 676.3125 125.195312 676.214844 C 123.984375 676.09375 122.914062 676.585938 122.425781 677.695312 C 122.113281 678.425781 122.089844 679.234375 122.363281 679.984375 C 122.648438 680.769531 123.300781 681.351562 124.144531 681.507812 C 124.242188 681.527344 124.359375 681.550781 124.40625 681.578125 L 125.265625 681.578125 L 125.402344 681.515625 Z M 124.300781 680.613281 C 123.257812 680.335938 122.949219 679.066406 123.285156 678.136719 C 123.535156 677.453125 124.148438 677.074219 124.878906 677.085938 C 125.539062 677.09375 126.101562 677.429688 126.359375 678.039062 C 126.617188 678.644531 126.597656 679.332031 126.28125 679.910156 C 125.894531 680.628906 125.035156 680.8125 124.300781 680.621094 Z M 152.421875 681.421875 C 153.941406 680.847656 154.375 679.046875 153.804688 677.710938 C 153.230469 676.371094 151.785156 675.929688 150.5 676.320312 C 148.953125 676.792969 148.382812 678.597656 148.941406 680.035156 C 149.234375 680.800781 149.882812 681.363281 150.714844 681.507812 C 150.8125 681.527344 150.929688 681.550781 150.980469 681.578125 L 151.773438 681.578125 C 151.75 681.441406 151.964844 681.585938 152.429688 681.414062 Z M 150.855469 680.621094 C 149.796875 680.339844 149.484375 679.074219 149.835938 678.125 C 150.078125 677.464844 150.664062 677.085938 151.363281 677.085938 C 152.066406 677.085938 152.625 677.402344 152.886719 678.015625 C 153.132812 678.582031 153.144531 679.226562 152.875 679.8125 C 152.496094 680.621094 151.621094 680.828125 150.855469 680.628906 Z M 169.066406 681.414062 C 169.730469 681.164062 170.195312 680.675781 170.453125 680.054688 C 170.992188 678.746094 170.570312 677.035156 169.210938 676.4375 C 168 675.898438 166.390625 676.207031 165.710938 677.507812 C 165.289062 678.308594 165.253906 679.238281 165.589844 680.078125 C 165.898438 680.828125 166.535156 681.371094 167.351562 681.515625 C 167.449219 681.527344 167.566406 681.558594 167.613281 681.585938 L 168.410156 681.585938 C 168.394531 681.449219 168.585938 681.601562 169.066406 681.421875 Z M 167.75 680.671875 C 167.214844 680.605469 166.769531 680.296875 166.542969 679.820312 C 166.277344 679.269531 166.261719 678.644531 166.484375 678.089844 C 166.742188 677.4375 167.328125 677.085938 168.007812 677.085938 C 168.730469 677.085938 169.339844 677.453125 169.582031 678.152344 C 169.769531 678.683594 169.753906 679.246094 169.53125 679.753906 C 169.210938 680.492188 168.53125 680.757812 167.742188 680.671875 Z M 94.546875 681.414062 C 96.035156 680.835938 96.457031 679.082031 95.933594 677.765625 C 95.589844 676.90625 94.824219 676.320312 93.894531 676.222656 C 92.695312 676.09375 91.628906 676.550781 91.121094 677.628906 C 90.761719 678.394531 90.734375 679.269531 91.054688 680.070312 C 91.378906 680.871094 92.023438 681.378906 92.835938 681.515625 C 92.945312 681.527344 93.050781 681.558594 93.101562 681.585938 L 93.894531 681.585938 C 93.875 681.449219 94.089844 681.59375 94.554688 681.414062 Z M 92.914062 680.632812 C 92.535156 680.460938 92.214844 680.242188 92.027344 679.875 C 91.515625 678.855469 91.855469 677.421875 93.007812 677.144531 C 93.765625 676.957031 94.574219 677.195312 94.945312 677.929688 C 95.226562 678.488281 95.246094 679.132812 95.019531 679.710938 C 94.660156 680.613281 93.796875 680.800781 92.914062 680.632812 Z M 105.382812 681.515625 C 105.925781 681.476562 106.398438 681.214844 106.699219 680.769531 C 107.089844 680.191406 107.035156 679.019531 106.097656 678.609375 C 105.261719 678.238281 104.753906 678.394531 104.015625 678.109375 C 103.730469 678.003906 103.601562 677.6875 103.75 677.402344 C 104.074219 676.785156 105.453125 676.828125 105.996094 677.53125 L 106.75 677.152344 C 106.375 676.242188 105.195312 676.035156 104.332031 676.144531 C 103.449219 676.25 102.664062 676.765625 102.722656 677.746094 C 102.792969 678.832031 103.800781 679.074219 104.675781 679.183594 C 105.097656 679.234375 105.90625 679.332031 105.941406 679.890625 C 105.953125 680.148438 105.824219 680.40625 105.597656 680.527344 C 104.867188 680.90625 103.703125 680.757812 103.285156 679.910156 L 102.507812 680.320312 C 102.714844 680.984375 103.335938 681.429688 103.980469 681.515625 C 104.03125 681.515625 104.117188 681.558594 104.128906 681.578125 L 105.253906 681.578125 Z M 110.738281 681.515625 C 111.871094 681.398438 112.5 680.425781 112.5 679.339844 L 112.5 676.3125 C 112.5 676.3125 111.535156 676.3125 111.535156 676.3125 L 111.535156 679.410156 C 111.535156 679.570312 111.460938 679.8125 111.410156 679.949219 C 111.246094 680.40625 110.832031 680.675781 110.347656 680.691406 C 109.996094 680.699219 109.628906 680.628906 109.359375 680.382812 C 109.128906 680.175781 108.953125 679.820312 108.953125 679.46875 L 108.953125 676.441406 C 108.953125 676.441406 108.878906 676.308594 108.859375 676.308594 L 107.964844 676.308594 C 107.964844 676.308594 107.964844 679.347656 107.964844 679.347656 C 107.964844 680.414062 108.609375 681.34375 109.6875 681.519531 C 109.789062 681.535156 109.902344 681.5625 109.953125 681.59375 L 110.609375 681.59375 L 110.738281 681.527344 Z M 146.566406 681.535156 C 147.128906 681.519531 147.710938 681.234375 148.125 680.8125 L 147.464844 680.148438 C 146.644531 680.921875 145.164062 680.835938 144.628906 679.871094 C 144.328125 679.320312 144.296875 678.660156 144.5625 678.074219 C 144.820312 677.507812 145.34375 677.195312 145.929688 677.136719 C 146.464844 677.085938 146.957031 677.207031 147.410156 677.609375 L 148.046875 676.972656 C 147.375 676.320312 146.550781 676.105469 145.671875 676.222656 C 144.699219 676.351562 143.917969 676.957031 143.589844 677.867188 C 143.039062 679.410156 143.769531 681.265625 145.476562 681.507812 C 145.578125 681.519531 145.691406 681.542969 145.742188 681.570312 L 146.535156 681.570312 L 146.558594 681.519531 Z M 88.867188 681.519531 C 89.390625 681.441406 89.796875 681.214844 90.226562 680.835938 L 89.566406 680.15625 C 89.082031 680.578125 88.515625 680.742188 87.875 680.640625 C 87.28125 680.546875 86.816406 680.175781 86.605469 679.617188 C 86.421875 679.105469 86.441406 678.554688 86.671875 678.058594 C 86.9375 677.507812 87.457031 677.1875 88.050781 677.136719 C 88.589844 677.09375 89.074219 677.230469 89.519531 677.609375 L 90.148438 676.980469 C 89.496094 676.328125 88.675781 676.105469 87.792969 676.222656 C 86.828125 676.34375 86.050781 676.9375 85.707031 677.84375 C 85.148438 679.339844 85.820312 681.226562 87.542969 681.507812 C 87.644531 681.519531 87.757812 681.550781 87.808594 681.578125 L 88.667969 681.578125 C 88.667969 681.578125 88.78125 681.527344 88.859375 681.515625 Z M 81.828125 630.46875 L 81.292969 628.535156 L 80.734375 626.210938 C 80.707031 626.082031 80.542969 625.898438 80.40625 625.898438 L 75.992188 625.898438 C 75.820312 625.898438 75.601562 625.960938 75.464844 626.019531 C 75.464844 626.140625 75.449219 626.332031 75.472656 626.417969 L 77.515625 634.074219 L 86.257812 666.78125 L 87.410156 671.09375 C 87.429688 671.300781 87.558594 671.40625 87.75 671.40625 L 92.757812 671.371094 L 81.828125 630.476562 Z M 119.523438 671.386719 C 119.578125 671.386719 119.730469 671.359375 119.730469 671.308594 L 119.75 671.058594 L 113.242188 647.246094 L 111.019531 639.101562 L 108.429688 648.535156 C 108.429688 648.742188 108.4375 648.878906 108.480469 649.101562 L 111.332031 659.5625 L 114.457031 671.066406 C 114.515625 671.265625 114.679688 671.394531 114.878906 671.394531 L 119.515625 671.394531 Z M 123.871094 654.863281 L 129.988281 630.855469 L 131.167969 626.226562 C 131.179688 626.167969 131.160156 625.996094 131.117188 625.960938 C 131.074219 625.925781 130.960938 625.890625 130.878906 625.890625 L 126.324219 625.890625 C 126.101562 625.890625 125.921875 626.027344 125.867188 626.246094 L 123.691406 634.835938 L 121.066406 645.171875 C 121.03125 645.332031 121.039062 645.507812 121.074219 645.660156 L 123.605469 655.574219 C 123.769531 655.320312 123.808594 655.121094 123.871094 654.863281 Z M 159.617188 659.425781 C 159.847656 658.589844 159.867188 657.726562 159.675781 656.886719 C 159.355469 655.515625 158.316406 654.5625 157.023438 654.105469 C 155.042969 653.414062 152.808594 653.089844 150.714844 652.984375 L 149.0625 652.898438 C 148.820312 652.882812 148.617188 652.691406 148.617188 652.441406 L 148.617188 650.515625 C 148.617188 650.515625 148.632812 644.773438 148.632812 644.773438 C 148.632812 644.609375 148.503906 644.441406 148.347656 644.4375 L 145.628906 644.34375 C 145.351562 644.335938 145.164062 644.480469 145.164062 644.78125 L 145.164062 651.765625 C 145.164062 651.765625 145.164062 652.527344 145.164062 652.527344 C 145.164062 652.640625 145.351562 652.8125 145.449219 652.820312 L 147.085938 652.90625 C 149.199219 653.019531 154.21875 653.511719 155.519531 655.34375 C 156.351562 656.507812 156.601562 657.953125 156.207031 659.320312 C 155.8125 660.6875 154.847656 661.808594 153.503906 662.210938 L 151.53125 662.796875 C 152.359375 662.890625 153.097656 662.867188 153.890625 662.8125 C 155.277344 662.71875 156.671875 662.386719 157.875 661.695312 C 158.753906 661.1875 159.359375 660.378906 159.625 659.414062 Z M 147.265625 671.34375 C 142.988281 670.75 138.640625 668.238281 135.53125 665.265625 C 135.351562 665.09375 135.359375 664.847656 135.53125 664.675781 L 137.976562 662.238281 L 139.855469 660.359375 L 139.019531 659.628906 C 138.796875 659.433594 138.605469 659.21875 138.410156 659 C 138.269531 658.835938 138.011719 658.792969 137.832031 658.96875 L 132.617188 664.183594 L 132.132812 664.671875 C 131.96875 664.835938 131.960938 665.128906 132.132812 665.277344 L 133.253906 666.28125 C 136.421875 669.089844 140.515625 670.800781 144.691406 671.449219 C 146.144531 671.679688 147.582031 671.765625 149.0625 671.785156 C 149.285156 671.785156 149.503906 671.765625 149.742188 671.738281 C 149.878906 671.699219 149.882812 671.6875 149.742188 671.6875 L 147.273438 671.34375 Z M 151.699219 644.402344 C 153.179688 644.542969 155.398438 644.230469 156.835938 643.855469 C 157.558594 643.671875 158.472656 643.304688 158.933594 642.699219 C 160.242188 640.945312 160.097656 638.527344 158.582031 636.933594 C 157.085938 635.359375 153.53125 635.101562 151.507812 635.1875 C 151.371094 635.1875 151.214844 635.21875 151.101562 635.238281 L 151.4375 635.308594 C 152.558594 635.539062 153.359375 635.695312 154.347656 636.273438 C 155.210938 636.78125 155.84375 637.546875 156.136719 638.5 C 156.484375 639.621094 156.484375 640.832031 156 641.910156 C 155.613281 642.769531 154.914062 643.433594 154.011719 643.742188 C 153.238281 644.007812 152.460938 644.148438 151.621094 644.292969 C 151.566406 644.300781 151.472656 644.335938 151.359375 644.378906 L 151.695312 644.414062 Z M 133.105469 681.429688 L 131.53125 679.632812 C 132.296875 679.484375 132.746094 678.933594 132.820312 678.210938 C 132.90625 677.289062 132.332031 676.5 131.410156 676.335938 C 131.351562 676.328125 131.210938 676.292969 131.144531 676.292969 L 128.503906 676.292969 C 128.503906 676.292969 128.503906 681.3125 128.503906 681.3125 C 128.503906 681.386719 128.613281 681.464844 128.640625 681.464844 L 129.09375 681.464844 C 129.09375 681.464844 129.484375 681.441406 129.484375 681.441406 L 129.484375 679.742188 C 129.484375 679.742188 130.394531 679.71875 130.394531 679.71875 L 131.894531 681.433594 L 132.398438 681.457031 C 132.625 681.464844 132.8125 681.457031 133.097656 681.429688 Z M 131.082031 678.847656 L 129.492188 678.847656 C 129.492188 678.847656 129.492188 677.214844 129.492188 677.214844 L 131.015625 677.214844 C 131.472656 677.214844 131.847656 677.53125 131.847656 678.046875 C 131.832031 678.480469 131.511719 678.839844 131.082031 678.839844 Z M 176.210938 681.320312 L 174.730469 679.65625 C 175.546875 679.410156 175.984375 678.9375 176.011719 678.082031 C 176.039062 677.328125 175.625 676.6875 174.933594 676.4375 C 174.78125 676.378906 174.53125 676.308594 174.351562 676.308594 L 171.835938 676.292969 C 171.792969 676.292969 171.691406 676.386719 171.691406 676.464844 L 171.691406 681.464844 C 171.691406 681.464844 172.664062 681.464844 172.664062 681.464844 L 172.664062 679.863281 C 172.664062 679.863281 172.691406 679.769531 172.691406 679.769531 C 172.691406 679.746094 172.800781 679.734375 172.828125 679.734375 L 173.609375 679.746094 L 175.089844 681.449219 L 175.667969 681.449219 C 175.667969 681.449219 176.253906 681.464844 176.253906 681.464844 L 176.203125 681.320312 Z M 174.222656 678.855469 L 172.679688 678.855469 C 172.679688 678.855469 172.679688 677.214844 172.679688 677.214844 L 174.289062 677.214844 C 174.679688 677.222656 175.011719 677.542969 175.039062 677.980469 C 175.066406 678.496094 174.703125 678.855469 174.230469 678.855469 Z M 159.605469 681.363281 L 158.09375 679.660156 C 158.34375 679.554688 158.597656 679.46875 158.804688 679.3125 C 159.53125 678.773438 159.617188 677.351562 158.746094 676.6875 C 158.503906 676.5 158.117188 676.3125 157.773438 676.308594 L 155.191406 676.277344 C 155.140625 676.277344 155.046875 676.371094 155.046875 676.457031 L 155.046875 681.449219 C 155.046875 681.449219 156.027344 681.464844 156.027344 681.464844 L 156.027344 679.863281 C 156.027344 679.863281 156.058594 679.769531 156.058594 679.769531 C 156.058594 679.746094 156.164062 679.734375 156.199219 679.734375 L 156.972656 679.746094 L 158.453125 681.449219 L 158.832031 681.449219 C 158.832031 681.449219 159.554688 681.472656 159.554688 681.472656 L 159.605469 681.371094 Z M 157.644531 678.847656 L 156.042969 678.859375 L 156.042969 677.222656 C 156.042969 677.222656 157.644531 677.222656 157.644531 677.222656 C 158.050781 677.222656 158.375 677.566406 158.394531 677.996094 C 158.417969 678.425781 158.09375 678.839844 157.644531 678.847656 Z M 101.371094 676.277344 L 100.546875 676.300781 L 100.546875 679.417969 C 100.46875 679.375 100.410156 679.332031 100.367188 679.269531 L 98.015625 676.285156 L 97.226562 676.3125 L 97.226562 681.449219 C 97.226562 681.449219 98.203125 681.449219 98.203125 681.449219 L 98.203125 678.125 C 98.242188 678.082031 98.25 678.066406 98.285156 678.089844 L 100.898438 681.449219 L 101.527344 681.449219 C 101.527344 681.449219 101.527344 676.457031 101.527344 676.457031 C 101.527344 676.371094 101.425781 676.277344 101.371094 676.277344 Z M 199.144531 681.472656 L 199.59375 681.457031 C 199.730469 681.457031 199.84375 681.441406 200.035156 681.429688 L 197.742188 676.300781 L 196.660156 676.300781 C 196.660156 676.300781 194.363281 681.433594 194.363281 681.433594 L 195.042969 681.464844 C 195.160156 681.464844 195.308594 681.464844 195.421875 681.449219 L 195.851562 680.492188 L 198.542969 680.492188 C 198.542969 680.492188 198.949219 681.371094 198.949219 681.371094 C 198.964844 681.40625 199.121094 681.472656 199.148438 681.472656 Z M 196.324219 679.589844 L 196.28125 679.476562 L 197.167969 677.457031 L 197.261719 677.542969 L 198.042969 679.339844 C 198.070312 679.410156 198.105469 679.519531 198.121094 679.582031 L 196.324219 679.582031 Z M 140.058594 681.457031 L 140.601562 681.457031 C 140.601562 681.457031 141.203125 681.492188 141.101562 681.398438 L 138.8125 676.308594 L 137.839844 676.308594 C 137.839844 676.308594 137.710938 676.371094 137.683594 676.4375 L 135.449219 681.414062 C 135.628906 681.457031 135.800781 681.472656 135.972656 681.464844 L 136.488281 681.449219 L 136.9375 680.492188 L 139.433594 680.492188 C 139.511719 680.492188 139.648438 680.546875 139.671875 680.589844 Z M 137.410156 679.582031 L 137.359375 679.488281 L 138.246094 677.472656 L 138.339844 677.539062 L 139.148438 679.398438 L 139.183594 679.582031 L 137.402344 679.582031 Z M 181.433594 681.464844 L 181.960938 681.464844 C 181.960938 681.464844 182.105469 681.40625 182.0625 681.308594 L 179.832031 676.320312 L 178.746094 676.308594 L 176.449219 681.433594 C 176.75 681.484375 177.277344 681.472656 177.507812 681.441406 L 177.941406 680.492188 L 180.640625 680.492188 C 180.640625 680.492188 181.0625 681.457031 181.0625 681.457031 L 181.433594 681.457031 Z M 178.335938 679.582031 L 179.230469 677.5 L 179.324219 677.480469 L 180.230469 679.574219 L 178.335938 679.574219 Z M 164.03125 679.519531 C 164.480469 679.140625 164.675781 678.597656 164.652344 678.007812 C 164.609375 677.058594 163.882812 676.300781 162.914062 676.300781 L 160.320312 676.300781 C 160.320312 676.300781 160.320312 681.449219 160.320312 681.449219 L 161.292969 681.449219 C 161.292969 681.449219 161.300781 679.96875 161.300781 679.96875 C 161.34375 679.96875 161.433594 679.949219 161.476562 679.949219 L 163.03125 679.925781 C 163.386719 679.925781 163.773438 679.71875 164.023438 679.511719 Z M 162.867188 679.039062 L 161.308594 679.039062 C 161.308594 679.039062 161.308594 677.222656 161.308594 677.222656 L 162.867188 677.238281 C 163.300781 677.238281 163.625 677.601562 163.679688 678.015625 C 163.746094 678.523438 163.402344 679.039062 162.867188 679.039062 Z M 192.890625 676.308594 L 191.332031 680.292969 L 189.832031 676.421875 C 189.808594 676.371094 189.6875 676.285156 189.636719 676.277344 L 188.6875 676.3125 L 190.824219 681.476562 L 191.210938 681.464844 C 191.289062 681.464844 191.390625 681.464844 191.46875 681.464844 L 191.847656 681.476562 L 193.984375 676.308594 Z M 184.335938 677.195312 L 185.960938 677.195312 C 185.960938 677.195312 185.980469 676.4375 185.980469 676.4375 C 185.980469 676.398438 185.890625 676.300781 185.855469 676.300781 L 181.734375 676.300781 C 181.734375 676.300781 181.726562 677.1875 181.726562 677.1875 L 183.351562 677.1875 C 183.351562 677.1875 183.351562 681.449219 183.351562 681.449219 L 183.878906 681.472656 C 184.015625 681.472656 184.1875 681.457031 184.335938 681.4375 Z M 121.519531 677.179688 L 121.539062 676.4375 C 121.539062 676.4375 121.460938 676.300781 121.390625 676.300781 L 117.289062 676.300781 C 117.289062 676.300781 117.277344 677.1875 117.277344 677.1875 L 118.90625 677.203125 L 118.90625 681.464844 C 118.90625 681.464844 119.886719 681.464844 119.886719 681.464844 L 119.886719 677.203125 C 119.886719 677.203125 121.519531 677.179688 121.519531 677.179688 Z M 117.246094 680.5625 L 114.722656 680.5625 C 114.722656 680.5625 114.707031 676.300781 114.707031 676.300781 L 113.734375 676.300781 C 113.734375 676.300781 113.734375 681.449219 113.734375 681.449219 L 114.171875 681.449219 C 114.171875 681.449219 116.941406 681.449219 116.941406 681.449219 L 117.363281 681.449219 C 117.363281 681.449219 117.382812 680.648438 117.382812 680.648438 C 117.382812 680.648438 117.261719 680.554688 117.246094 680.554688 Z M 148.8125 626.449219 L 149.527344 626.375 L 148.589844 626.328125 C 148.023438 626.296875 147.453125 626.328125 146.878906 626.371094 C 144.640625 626.539062 143.347656 626.726562 141.1875 627.34375 C 141.109375 627.363281 140.964844 627.507812 140.945312 627.597656 L 140.515625 629.351562 C 143.269531 627.554688 145.441406 626.90625 148.609375 626.476562 L 148.820312 626.449219 Z M 141.203125 637.242188 C 141.257812 637.191406 141.273438 637.019531 141.222656 636.96875 L 139.042969 634.78125 L 138.476562 636.910156 C 138.375 637.296875 138.476562 637.648438 138.734375 637.921875 L 139.390625 638.558594 C 139.511719 638.671875 139.742188 638.65625 139.878906 638.507812 C 140.3125 638.027344 140.695312 637.65625 141.203125 637.25 Z M 186.863281 676.300781 L 186.863281 681.476562 L 187.835938 681.476562 L 187.835938 676.300781 Z M 133.777344 676.300781 L 133.777344 681.472656 L 134.75 681.472656 L 134.75 676.300781 Z M 278.957031 665.078125 L 260.160156 675.871094 L 241.089844 664.933594 L 241.105469 643.027344 L 260.152344 632.089844 L 279.070312 642.957031 C 279.265625 643.5625 279.257812 644.101562 279.085938 644.773438 C 274.457031 645.644531 271.246094 649.523438 271.09375 654.0625 C 270.945312 658.613281 273.976562 662.832031 278.5 663.875 C 278.777344 663.941406 279.097656 664.105469 279.191406 664.269531 C 279.285156 664.433594 279.105469 664.863281 278.964844 665.078125 Z M 263.585938 657.96875 C 262.0625 659.597656 259.652344 659.769531 257.957031 658.632812 C 255.917969 657.269531 255.304688 654.871094 255.859375 652.617188 C 256.425781 650.328125 258.25 648.871094 260.632812 649.078125 C 262.347656 649.226562 263.800781 650.066406 264.308594 651.847656 L 268.828125 651.808594 C 268.320312 647.097656 263.894531 644.671875 259.789062 644.914062 C 255.339844 645.179688 251.699219 648.207031 251.046875 652.5625 C 250.324219 657.433594 252.722656 661.953125 257.648438 663.21875 C 258.851562 663.527344 260.007812 663.742188 261.210938 663.554688 C 265.808594 662.847656 267.804688 661.078125 269.042969 656.402344 L 264.410156 656.453125 C 264.152344 656.945312 263.921875 657.617188 263.585938 657.976562 Z M 297.214844 651.589844 L 306.171875 662.4375 L 308.652344 662.417969 L 308.652344 646.109375 C 308.652344 646.109375 305.621094 646.132812 305.621094 646.132812 L 305.5625 656.972656 L 296.828125 646.359375 C 296.085938 646.015625 294.871094 646.074219 294.089844 646.359375 L 294.089844 662.425781 C 294.089844 662.425781 297.171875 662.382812 297.171875 662.382812 L 297.230469 651.597656 Z M 289.675781 659.097656 C 287.667969 661.917969 284.378906 662.917969 281.136719 662.574219 C 276.996094 662.132812 273.863281 659 273.535156 655 C 273.191406 650.84375 275.875 647.097656 280 646.167969 C 283.105469 645.464844 286.367188 646.039062 288.691406 648.285156 C 291.601562 651.09375 292.082031 655.722656 289.675781 659.097656 Z M 288.117188 654.257812 C 288.117188 651.082031 285.542969 648.507812 282.367188 648.507812 C 279.191406 648.507812 276.617188 651.082031 276.617188 654.257812 C 276.617188 657.433594 279.191406 660.007812 282.367188 660.007812 C 285.542969 660.007812 288.117188 657.433594 288.117188 654.257812 Z M 384.117188 661.25 C 381.050781 663.160156 377.273438 663.097656 374.261719 661.359375 C 371.25 659.621094 369.75 656.050781 370.421875 652.554688 C 371.09375 649.058594 373.8125 646.597656 377.328125 646.03125 C 380.800781 645.472656 384.296875 646.488281 386.386719 649.414062 C 389.101562 653.21875 388.207031 658.707031 384.117188 661.25 Z M 384.855469 654.25 C 384.855469 651.066406 382.28125 648.492188 379.097656 648.492188 C 375.914062 648.492188 373.339844 651.066406 373.339844 654.25 C 373.339844 657.433594 375.914062 660.007812 379.097656 660.007812 C 382.28125 660.007812 384.855469 657.433594 384.855469 654.25 Z M 401.613281 662.511719 L 398.238281 657.703125 L 393.902344 657.675781 L 393.851562 662.425781 L 390.832031 662.402344 L 390.832031 646.203125 C 393.851562 646.175781 396.761719 646.003906 399.636719 646.332031 C 402.261719 646.640625 404.164062 648.675781 404.5 650.9375 C 404.910156 653.671875 403.636719 656.023438 401.113281 657.054688 L 404.789062 662.339844 L 401.621094 662.515625 Z M 398.738281 655.023438 C 400.617188 654.777344 401.5625 653.304688 401.476562 651.703125 C 401.261719 647.917969 396.589844 648.75 393.878906 648.699219 L 393.878906 655.144531 C 395.617188 655.128906 397.148438 655.222656 398.738281 655.023438 Z M 338.441406 655.773438 C 338.441406 657.125 337.941406 658.605469 336.753906 659.328125 C 335.152344 660.292969 332.871094 660.25 331.441406 658.960938 C 330.753906 658.347656 330.265625 657.054688 330.261719 656.109375 L 330.195312 646.144531 C 329 646.09375 328.164062 646.101562 327.113281 646.1875 L 327.199219 656.464844 C 327.226562 659.59375 329.515625 661.988281 332.5 662.496094 C 334.371094 662.816406 336.175781 662.726562 337.925781 661.921875 C 339.84375 661.042969 341.246094 659.097656 341.375 656.84375 C 341.582031 653.253906 341.445312 649.773438 341.460938 646.117188 C 340.375 646.089844 339.492188 646.09375 338.492188 646.230469 L 338.449219 655.785156 Z M 323.660156 655.359375 C 321.390625 652.410156 314.347656 653.449219 314.769531 650.378906 C 315.15625 647.5625 320.5625 648.25 322.773438 649.636719 L 323.773438 647.339844 C 321.003906 645.722656 317.621094 645.402344 314.605469 646.566406 C 312.15625 647.511719 311.007812 650.324219 312.179688 652.660156 C 312.730469 653.761719 313.9375 654.558594 315.117188 654.894531 L 320.003906 656.273438 C 320.847656 656.507812 321.417969 657.261719 321.417969 657.976562 C 321.417969 661.230469 314.652344 660.265625 312.445312 658.382812 C 312.023438 659.199219 311.683594 659.921875 311.390625 660.816406 C 314.53125 662.6875 318.25 663.28125 321.628906 661.902344 C 324.332031 660.792969 325.347656 657.566406 323.652344 655.359375 Z M 429.105469 662.394531 L 422.65625 646.332031 L 419.558594 646.316406 L 413.128906 662.417969 C 414.207031 662.488281 415.058594 662.480469 416.101562 662.4375 L 421.09375 650.542969 L 426.050781 662.460938 L 429.097656 662.394531 Z M 364.242188 648.75 L 369.667969 648.683594 C 369.710938 647.742188 369.707031 646.984375 369.597656 646.082031 L 355.738281 646.082031 C 355.738281 646.082031 355.6875 648.691406 355.6875 648.691406 L 361.136719 648.71875 L 361.179688 662.394531 C 362.261719 662.4375 363.28125 662.453125 364.21875 662.289062 L 364.234375 648.75 Z M 348.648438 659.769531 L 348.648438 646.125 C 347.527344 646.082031 346.667969 646.082031 345.550781 646.175781 L 345.550781 662.425781 C 345.550781 662.425781 357.117188 662.425781 357.117188 662.425781 L 357.117188 659.8125 C 357.117188 659.8125 348.65625 659.769531 348.65625 659.769531 Z M 407.570312 646.144531 L 407.570312 662.425781 L 410.644531 662.425781 L 410.644531 646.144531 Z M 236.476562 656.203125 C 236.457031 658.496094 234.605469 659.835938 232.515625 659.8125 C 230.382812 659.785156 228.726562 658.304688 228.726562 656.101562 L 228.726562 652.570312 C 228.726562 650.488281 230.296875 649.070312 232.308594 648.941406 C 234.683594 648.800781 236.535156 650.367188 236.515625 652.761719 Z M 234.375 652.238281 C 234.339844 651.253906 233.582031 650.894531 232.714844 650.851562 C 231.742188 650.808594 230.820312 651.28125 230.8125 652.410156 L 230.800781 656.292969 C 230.800781 657.402344 231.699219 657.925781 232.730469 657.882812 C 234.96875 657.78125 234.476562 655.214844 234.382812 652.238281 Z M 225.257812 659.699219 C 224.792969 659.757812 223.976562 659.769531 223.410156 659.742188 L 223.28125 657.640625 L 218.546875 657.605469 C 218.269531 657.605469 218.195312 656.746094 218.332031 656.515625 L 222.9375 649.019531 C 223.675781 648.878906 224.46875 648.878906 225.285156 648.992188 L 225.3125 655.746094 L 226.148438 655.894531 C 226.445312 655.945312 226.429688 657.453125 226.148438 657.519531 L 225.335938 657.695312 L 225.25 659.707031 Z M 223.375 655.828125 L 223.496094 651.546875 L 220.773438 655.851562 L 223.367188 655.828125 Z M 522.359375 638.136719 C 522.238281 642.3125 520.792969 646.195312 517.894531 649.222656 C 516.835938 650.328125 515.722656 651.246094 514.40625 652.039062 C 511.316406 653.90625 507.804688 654.851562 504.175781 654.871094 C 501.515625 654.886719 498.964844 654.40625 496.558594 653.304688 C 494.863281 652.527344 493.476562 651.453125 492.167969 650.128906 L 487.625 645.53125 L 484.542969 642.375 L 479.550781 637.363281 L 476.71875 634.625 C 474.375 632.355469 471.976562 630.210938 469.410156 628.191406 C 468.03125 627.105469 466.648438 626.140625 465.125 625.3125 C 463.996094 624.695312 462.824219 624.425781 461.550781 624.34375 C 458.332031 624.128906 455.398438 624.832031 452.921875 626.984375 C 451.492188 628.234375 450.457031 629.808594 449.710938 631.570312 C 448.902344 633.472656 448.589844 635.460938 448.402344 637.503906 L 448.308594 638.5625 L 448.210938 637.804688 L 448.066406 636.332031 C 447.988281 635.53125 448.082031 634.773438 448.152344 633.945312 C 448.445312 630.582031 449.863281 627.5 452.195312 625.082031 C 456.421875 620.710938 463.179688 618.921875 469.128906 619.726562 C 472.398438 620.160156 475.625 621.390625 478.019531 623.730469 L 480.726562 626.371094 L 483.25 628.824219 L 488.292969 633.792969 L 489.101562 634.601562 L 491.304688 636.863281 L 492.613281 638.265625 L 493.527344 639.242188 L 494.644531 640.417969 L 497.804688 643.664062 L 499.277344 645.066406 C 500.445312 646.175781 501.675781 647.152344 503.03125 648.019531 C 504.492188 648.949219 506.042969 649.585938 507.753906 649.878906 C 509.285156 650.136719 510.777344 650.207031 512.296875 649.964844 C 517.71875 649.105469 520.90625 644.878906 521.910156 639.714844 C 522.050781 638.984375 522.144531 638.285156 522.246094 637.542969 C 522.265625 637.375 522.160156 637.21875 522.375 637.089844 L 522.34375 638.121094 Z M 472.792969 652.453125 C 469.089844 652.882812 465.496094 651.753906 462.699219 649.300781 C 459.269531 646.289062 457.316406 641.605469 458.023438 637.019531 C 458.375 634.753906 459.5625 632.511719 461.328125 631.054688 C 462.457031 630.109375 463.773438 629.472656 465.210938 629.109375 C 466.320312 628.824219 467.398438 628.785156 468.609375 628.695312 C 465.898438 626.492188 462.671875 625.28125 459.230469 625.667969 C 455.546875 626.074219 452.496094 628.320312 450.898438 631.632812 C 449.617188 634.292969 449.175781 637.035156 449.332031 639.996094 C 449.539062 643.992188 451.226562 647.675781 454.140625 650.421875 C 454.445312 650.707031 454.691406 650.964844 455.019531 651.246094 C 458.125 653.855469 462.101562 655.402344 466.183594 655.609375 C 469.324219 655.765625 472.429688 655.113281 475.253906 653.71875 C 476.875 652.917969 478.308594 651.910156 479.660156 650.722656 C 480.308594 650.152344 480.945312 649.601562 481.417969 648.878906 C 480.375 649.527344 479.5 650.152344 478.4375 650.6875 C 476.625 651.609375 474.789062 652.230469 472.792969 652.460938 Z M 509.457031 648.792969 C 512.296875 648.976562 515.121094 648.054688 517.222656 646.144531 C 518.230469 645.230469 518.988281 644.207031 519.613281 643.003906 C 521.121094 640.09375 521.578125 636.734375 521.222656 633.472656 C 520.785156 629.464844 518.875 626.019531 515.863281 623.371094 C 514.0625 621.785156 512.003906 620.613281 509.734375 619.824219 C 504.542969 618.015625 498.847656 618.566406 494.144531 621.433594 C 492.355469 622.519531 490.703125 623.84375 489.328125 625.503906 C 490.789062 624.636719 492.054688 623.757812 493.5625 623.144531 C 494.742188 622.664062 495.902344 622.265625 497.160156 622.070312 C 501 621.363281 504.828125 622.429688 507.78125 624.945312 C 512.144531 628.65625 514.289062 635.34375 511.539062 640.601562 C 509.554688 644.1875 506.09375 645.714844 501.980469 645.679688 C 504.089844 647.476562 506.714844 648.621094 509.449219 648.792969 Z M 455.941406 663.21875 C 451.363281 663.21875 447.660156 666.929688 447.660156 671.5 C 447.660156 676.070312 451.371094 679.785156 455.941406 679.785156 C 460.511719 679.785156 464.222656 676.070312 464.222656 671.5 C 464.222656 666.929688 460.511719 663.21875 455.941406 663.21875 Z M 453.410156 675.433594 C 451.679688 674.261719 451.355469 671.699219 451.871094 669.8125 C 452.636719 667.015625 455.613281 666.195312 457.910156 667.222656 C 460.785156 668.511719 460.976562 673.375 458.710938 675.25 C 457.199219 676.484375 454.996094 676.507812 453.410156 675.433594 Z M 505.480469 679.5625 L 509.59375 679.53125 L 503.761719 663.527344 L 499.226562 663.527344 C 499.226562 663.527344 493.398438 679.53125 493.398438 679.53125 L 497.46875 679.546875 L 498.449219 676.699219 L 504.5 676.699219 C 504.5 676.699219 505.480469 679.554688 505.480469 679.554688 Z M 499.464844 673.738281 L 501.472656 667.832031 L 503.503906 673.753906 L 499.472656 673.738281 Z M 509.707031 629.308594 C 507.984375 625.855469 504.84375 623.574219 501.039062 623.171875 C 499.921875 623.027344 498.925781 623.070312 497.789062 623.1875 C 493.335938 623.722656 488.601562 626.449219 486.289062 630.359375 L 490.378906 634.429688 L 491.582031 635.703125 L 494.019531 633.3125 C 496.375 631.003906 499.980469 628.214844 503.375 627.90625 C 505.929688 627.757812 507.375 628.234375 509.707031 629.308594 Z M 484.335938 644.058594 L 479.636719 639.34375 C 479.421875 639.128906 479.300781 638.878906 479.007812 638.734375 C 476.503906 641.246094 473.785156 643.976562 470.613281 645.515625 C 468.816406 646.382812 466.941406 646.703125 464.960938 646.445312 C 463.53125 646.261719 462.308594 645.722656 460.957031 645.128906 C 461.390625 646.089844 461.914062 646.773438 462.480469 647.492188 C 467.535156 653.425781 476.535156 651.851562 481.8125 647.097656 C 482.804688 646.195312 483.628906 645.222656 484.328125 644.058594 Z M 522.144531 672.117188 C 521.699219 671.664062 521.242188 671.285156 520.664062 671.015625 C 519.804688 670.613281 518.933594 670.300781 518.023438 669.992188 C 517.246094 669.726562 516.472656 669.457031 515.785156 669.035156 C 515.3125 668.738281 515.136719 668.289062 515.148438 667.753906 C 515.164062 667.1875 515.484375 666.722656 516.035156 666.515625 C 516.644531 666.28125 517.335938 666.378906 517.929688 666.6875 C 518.417969 666.980469 518.625 667.46875 518.769531 668.0625 L 522.902344 668.0625 C 522.929688 666.265625 521.859375 664.75 520.242188 663.976562 C 519.148438 663.453125 517.988281 663.304688 516.773438 663.320312 C 515.472656 663.332031 514.226562 663.5625 513.117188 664.242188 C 512.175781 664.820312 511.464844 665.644531 511.195312 666.730469 C 510.945312 667.722656 510.957031 668.746094 511.292969 669.707031 C 511.628906 670.664062 512.695312 671.59375 513.640625 672.007812 C 514.675781 672.464844 515.734375 672.796875 516.824219 673.140625 C 517.460938 673.339844 518.074219 673.582031 518.5625 673.996094 C 518.925781 674.3125 519.046875 674.691406 519.046875 675.148438 C 519.046875 675.671875 518.820312 676.105469 518.332031 676.351562 C 517.703125 676.664062 516.929688 676.714844 516.25 676.441406 C 515.570312 676.171875 515.207031 675.519531 515.113281 674.777344 L 510.988281 674.777344 C 511.007812 677.195312 512.71875 678.832031 514.925781 679.410156 C 517.300781 680.035156 520.257812 679.785156 521.980469 677.878906 C 523.394531 676.3125 523.601562 673.589844 522.144531 672.109375 Z M 478.621094 667.523438 C 478.328125 666.078125 477.476562 664.890625 476.148438 664.242188 C 475.226562 663.777344 474.230469 663.546875 473.164062 663.546875 L 466.414062 663.527344 L 466.414062 679.554688 C 466.414062 679.554688 470.316406 679.5625 470.316406 679.5625 L 470.316406 673.789062 C 470.316406 673.789062 473.707031 673.746094 473.707031 673.746094 C 475.03125 673.730469 476.210938 673.183594 477.226562 672.324219 C 478.535156 671.058594 478.964844 669.242188 478.613281 667.53125 Z M 473 670.671875 L 470.324219 670.671875 C 470.324219 670.671875 470.332031 666.652344 470.332031 666.652344 L 472.542969 666.652344 C 473.007812 666.652344 473.488281 666.730469 473.902344 666.960938 C 474.507812 667.296875 474.738281 667.960938 474.765625 668.675781 C 474.800781 669.753906 474.085938 670.671875 473 670.671875 Z M 488.15625 666.628906 L 492.417969 666.628906 C 492.417969 666.628906 492.417969 663.519531 492.417969 663.519531 L 479.929688 663.519531 C 479.929688 663.519531 479.929688 666.621094 479.929688 666.621094 L 484.238281 666.621094 C 484.238281 666.621094 484.238281 679.5625 484.238281 679.5625 L 488.15625 679.546875 Z M 467.972656 684.453125 C 467.777344 684.410156 467.542969 684.402344 467.421875 684.488281 L 467.398438 688.015625 L 465.011719 684.460938 C 464.847656 684.398438 464.574219 684.410156 464.375 684.460938 L 464.375 688.894531 C 464.558594 688.945312 464.78125 688.953125 464.96875 688.910156 L 464.96875 685.417969 C 465.140625 685.546875 465.246094 685.683594 465.363281 685.863281 L 467.378906 688.910156 C 467.558594 688.953125 467.800781 688.945312 467.980469 688.894531 L 467.980469 684.445312 Z M 501.382812 684.355469 C 500.09375 684.355469 499.050781 685.398438 499.050781 686.683594 C 499.050781 687.972656 500.09375 689.015625 501.382812 689.015625 C 502.667969 689.015625 503.710938 687.972656 503.710938 686.683594 C 503.710938 685.398438 502.667969 684.355469 501.382812 684.355469 Z M 499.734375 686.128906 C 499.9375 685.242188 500.789062 684.734375 501.644531 684.855469 C 502.566406 684.984375 503.117188 685.777344 503.105469 686.714844 C 503.089844 687.609375 502.574219 688.332031 501.703125 688.496094 C 500.871094 688.644531 499.980469 688.160156 499.75 687.265625 C 499.648438 686.855469 499.65625 686.5 499.742188 686.132812 Z M 458.171875 684.355469 C 456.886719 684.355469 455.839844 685.398438 455.839844 686.683594 C 455.839844 687.972656 456.886719 689.015625 458.171875 689.015625 C 459.460938 689.015625 460.503906 687.972656 460.503906 686.683594 C 460.503906 685.398438 459.460938 684.355469 458.171875 684.355469 Z M 457.386719 688.335938 C 456.785156 688.050781 456.472656 687.421875 456.457031 686.714844 C 456.441406 686.007812 456.734375 685.363281 457.335938 685.046875 C 457.929688 684.734375 458.730469 684.746094 459.28125 685.242188 C 460.097656 685.964844 460.125 687.335938 459.296875 688.09375 C 458.738281 688.601562 457.980469 688.617188 457.378906 688.335938 Z M 509.554688 687.050781 C 510.269531 686.90625 510.671875 686.386719 510.652344 685.683594 C 510.609375 684.089844 508.691406 684.433594 507.609375 684.433594 L 507.609375 688.910156 C 507.769531 688.953125 507.976562 688.953125 508.140625 688.925781 L 508.152344 687.121094 C 508.441406 687.09375 508.699219 687.09375 508.949219 687.121094 L 509.984375 688.902344 C 510.207031 688.96875 510.484375 688.96875 510.664062 688.886719 Z M 508.148438 686.621094 L 508.148438 684.890625 C 508.640625 684.832031 509.097656 684.8125 509.550781 684.941406 C 510 685.070312 510.121094 685.519531 510.058594 685.921875 C 510 686.269531 509.65625 686.628906 509.226562 686.628906 L 508.148438 686.628906 Z M 522.523438 688.875 C 522.574219 689.011719 523.007812 688.980469 523.09375 688.851562 L 521.507812 684.480469 C 521.285156 684.402344 521.019531 684.398438 520.800781 684.460938 L 519.183594 688.886719 C 519.3125 688.96875 519.71875 689.003906 519.777344 688.851562 L 520.132812 687.964844 L 522.164062 687.964844 C 522.164062 687.964844 522.523438 688.875 522.523438 688.875 Z M 520.304688 687.480469 L 521.136719 685.199219 L 521.988281 687.472656 C 521.398438 687.515625 520.898438 687.507812 520.300781 687.472656 Z M 448.890625 685.21875 C 449.632812 684.589844 450.949219 684.738281 451.363281 685.683594 C 451.585938 685.710938 451.828125 685.707031 452.035156 685.65625 C 451.664062 684.78125 450.886719 684.390625 450.035156 684.355469 C 448.71875 684.304688 447.730469 685.269531 447.667969 686.570312 C 447.601562 687.953125 448.640625 689.054688 450.035156 689.011719 C 450.90625 688.980469 451.722656 688.539062 452.035156 687.695312 L 451.386719 687.664062 C 450.984375 688.496094 449.917969 688.800781 449.070312 688.273438 C 447.996094 687.609375 447.953125 686.027344 448.890625 685.226562 Z M 475.074219 687.414062 C 474.972656 686.972656 474.632812 686.714844 474.160156 686.5625 L 473.164062 686.25 C 472.765625 686.128906 472.59375 685.8125 472.644531 685.433594 C 472.691406 685.054688 472.972656 684.863281 473.378906 684.824219 C 473.851562 684.777344 474.246094 684.984375 474.4375 685.441406 C 474.589844 685.46875 474.882812 685.46875 475.015625 685.441406 C 474.96875 684.355469 473.550781 684.140625 472.742188 684.511719 C 472.347656 684.695312 472.085938 685.070312 472.050781 685.433594 C 471.878906 687.371094 474.667969 686.421875 474.523438 687.835938 C 474.488281 688.207031 474.171875 688.480469 473.75 688.523438 C 473.234375 688.574219 472.757812 688.367188 472.636719 687.808594 C 472.464844 687.785156 472.21875 687.78125 472.0625 687.785156 C 472.007812 688.136719 472.175781 688.394531 472.449219 688.617188 C 473.035156 689.101562 473.996094 689.152344 474.625 688.671875 C 475.058594 688.335938 475.1875 687.859375 475.089844 687.414062 Z M 481.605469 688.265625 C 481.074219 688.652344 480.316406 688.625 479.886719 688.101562 C 479.773438 687.957031 479.679688 687.574219 479.679688 687.386719 L 479.679688 684.445312 C 479.679688 684.445312 479.117188 684.433594 479.117188 684.433594 L 479.136719 687.59375 C 479.136719 688.503906 480.003906 689.015625 480.839844 689.015625 C 481.761719 689.015625 482.542969 688.402344 482.542969 687.449219 L 482.542969 684.460938 C 482.363281 684.402344 482.105469 684.402344 481.992188 684.496094 L 481.992188 687.429688 C 481.992188 687.742188 481.832031 688.117188 481.617188 688.273438 Z M 494.171875 684.867188 L 495.351562 684.839844 C 495.457031 684.839844 495.472656 684.417969 495.335938 684.417969 L 492.398438 684.417969 C 492.296875 684.433594 492.296875 684.824219 492.398438 684.832031 L 493.613281 684.867188 L 493.628906 688.910156 C 493.792969 688.960938 494.019531 688.960938 494.164062 688.886719 L 494.164062 684.867188 Z M 487.246094 688.488281 L 487.246094 684.503906 C 487.125 684.382812 486.855469 684.390625 486.675781 684.460938 L 486.675781 688.945312 C 486.675781 688.945312 488.855469 688.945312 488.855469 688.945312 C 488.886719 688.800781 488.871094 688.53125 488.792969 688.523438 Z M 515.304688 684.445312 C 515.097656 684.417969 514.921875 684.417969 514.707031 684.445312 L 514.707031 688.917969 C 514.914062 688.96875 515.121094 688.96875 515.304688 688.894531 Z M 738.125 661.117188 L 738.125 664.570312 L 723.933594 664.570312 C 723.933594 664.570312 723.933594 645.953125 723.933594 645.953125 L 737.953125 645.953125 C 737.953125 645.953125 737.953125 649.378906 737.953125 649.378906 L 728.226562 649.378906 C 728.226562 649.378906 728.210938 653.457031 728.210938 653.457031 L 736.84375 653.457031 C 736.84375 653.457031 736.859375 656.789062 736.859375 656.789062 L 728.21875 656.800781 L 728.21875 661.109375 C 728.21875 661.109375 738.132812 661.109375 738.132812 661.109375 Z M 555.144531 646.53125 L 568.164062 657.753906 C 568.320312 658.15625 568.355469 659.128906 568.011719 659.328125 C 566.753906 659.976562 565.429688 660.207031 564.015625 660.808594 C 570.136719 661.265625 577.054688 658.226562 581.6875 654.261719 C 584.492188 651.859375 589.304688 644.828125 589.160156 641.015625 L 587.460938 645.101562 C 587.007812 645.03125 586.457031 644.921875 586.101562 644.75 L 579.390625 628.652344 L 572.703125 644.449219 L 580.378906 651.359375 C 580.542969 651.601562 580.613281 651.976562 580.527344 652.183594 C 580.441406 652.390625 579.792969 652.460938 579.597656 652.289062 L 571.566406 644.980469 L 567.492188 645.4375 L 576.625 653.898438 C 576.773438 654.035156 576.703125 654.535156 576.546875 654.636719 C 576.386719 654.734375 575.910156 654.742188 575.75 654.605469 L 565.609375 645.546875 L 561.796875 645.882812 L 572.832031 655.914062 C 573.027344 656.085938 572.867188 656.78125 572.683594 656.847656 C 572.496094 656.910156 572.082031 656.917969 571.902344 656.753906 L 559.996094 646.015625 L 555.125 646.539062 Z M 579.914062 665.148438 L 594.460938 673.816406 L 590.699219 657.410156 L 603.339844 646.175781 L 591.257812 645.207031 C 590.929688 644.679688 590.671875 644.144531 590.441406 643.5625 L 589.570312 640.945312 C 589.390625 643.003906 589.5 644.765625 589.15625 646.6875 C 588.246094 651.796875 585.535156 656.238281 581.753906 659.726562 C 579.085938 662.1875 576.03125 663.839844 572.5625 664.90625 C 568.019531 666.308594 566.425781 665.679688 561.960938 666.199219 L 566.875 667.675781 C 566.390625 669.777344 565.816406 671.621094 565.507812 673.738281 L 579.914062 665.140625 Z M 719.542969 645.945312 L 715.28125 645.972656 L 715.25 657.195312 L 706.03125 645.960938 L 702.464844 645.960938 C 702.464844 645.960938 702.46875 664.5625 702.46875 664.5625 L 706.667969 664.511719 L 706.667969 653.183594 C 706.667969 653.183594 715.972656 664.535156 715.972656 664.535156 L 719.542969 664.464844 Z M 670.441406 658.578125 C 672.980469 657.46875 674.347656 655.144531 674.210938 652.398438 C 674.097656 650.121094 673.066406 648.140625 671 647.054688 C 669.832031 646.417969 668.503906 646.007812 667.109375 646.003906 L 658.089844 645.96875 L 658.089844 664.535156 C 658.089844 664.535156 662.402344 664.5625 662.402344 664.5625 L 662.425781 659.414062 L 666.414062 659.414062 C 666.414062 659.414062 669.917969 664.519531 669.917969 664.519531 L 674.503906 664.441406 Z M 666.378906 655.921875 L 662.417969 655.945312 L 662.417969 649.4375 C 662.417969 649.4375 666.644531 649.480469 666.644531 649.480469 C 667.667969 649.484375 668.605469 649.957031 669.269531 650.664062 C 670.042969 651.933594 670.105469 653.40625 669.269531 654.730469 C 668.503906 655.480469 667.460938 655.921875 666.394531 655.929688 Z M 651.625 664.519531 L 656.117188 664.476562 L 647.839844 645.980469 L 643.554688 645.945312 L 635.296875 664.5 L 639.652344 664.546875 L 641.332031 660.558594 L 649.964844 660.558594 C 649.964844 660.558594 651.625 664.527344 651.625 664.527344 Z M 642.703125 657.273438 L 645.644531 650.230469 L 648.585938 657.210938 L 642.703125 657.269531 Z M 618.824219 656.515625 C 618.15625 655.480469 617.019531 654.734375 615.820312 654.398438 L 610.140625 652.8125 C 609.238281 652.5625 608.671875 651.789062 608.746094 650.964844 C 608.808594 650.25 609.367188 649.578125 610.203125 649.335938 C 612.613281 648.632812 615.074219 649.222656 617.40625 650.488281 L 618.738281 647.3125 C 615.992188 645.457031 611.113281 645.074219 607.996094 646.367188 C 605.675781 647.324219 604.332031 649.335938 604.460938 651.78125 C 604.8125 658.347656 615.820312 655.828125 615.21875 659.765625 C 615.140625 660.265625 614.554688 660.945312 613.851562 661.121094 C 610.984375 661.867188 608.058594 661.160156 605.527344 659.492188 L 604.058594 662.730469 C 607.671875 665.363281 615.933594 666 618.679688 661.84375 C 619.738281 660.234375 619.886719 658.160156 618.832031 656.515625 Z M 630.359375 649.472656 L 636.347656 649.457031 L 636.347656 645.960938 C 636.347656 645.960938 620.109375 645.960938 620.109375 645.960938 L 620.125 649.449219 L 626.066406 649.464844 L 626.066406 664.5 C 627.570312 664.554688 628.859375 664.578125 630.359375 664.476562 L 630.359375 649.457031 Z M 681.980469 661.035156 L 681.980469 645.953125 C 681.980469 645.953125 677.660156 645.953125 677.660156 645.953125 L 677.660156 664.5625 C 677.660156 664.5625 691.304688 664.5625 691.304688 664.5625 L 691.289062 661.050781 L 681.972656 661.035156 Z M 693.738281 645.953125 L 693.738281 664.5625 L 698.035156 664.5625 L 698.035156 645.953125 Z M 574.785156 661.515625 C 569.707031 663.003906 564.507812 662.816406 559.414062 661.457031 L 558.722656 663.933594 C 564.871094 665.242188 572.410156 663.65625 577.726562 660.78125 C 576.667969 660.929688 575.773438 661.230469 574.777344 661.515625 Z M 591.4375 640.589844 L 590.914062 638.257812 L 592.679688 636.789062 L 590.304688 636.546875 L 589.382812 634.386719 L 588.441406 636.546875 L 586.066406 636.789062 L 587.859375 638.300781 L 587.316406 640.566406 L 589.398438 639.378906 L 591.445312 640.59375 Z M 702.414062 674.097656 C 701.832031 674.074219 701.234375 673.546875 701.0625 672.894531 C 700.875 672.171875 701.125 671.445312 701.703125 671.058594 C 703.199219 670.054688 703.859375 672.144531 704.574219 671.285156 C 704.195312 670.292969 703.171875 670.054688 702.253906 670.15625 C 701.503906 670.234375 700.703125 670.742188 700.4375 671.558594 C 699.953125 673.046875 700.789062 674.460938 702.121094 674.691406 C 703.601562 674.949219 704.917969 673.976562 704.808594 672.265625 L 702.589844 672.222656 C 702.46875 672.222656 702.191406 672.566406 702.296875 672.632812 C 702.371094 672.675781 702.605469 672.789062 702.699219 672.796875 L 704.015625 672.867188 C 703.730469 673.890625 703.113281 674.117188 702.414062 674.097656 Z M 675.332031 670.226562 L 673.308594 670.164062 L 673.308594 674.667969 C 673.96875 674.683594 674.570312 674.683594 675.175781 674.664062 C 676.355469 674.613281 677.179688 673.769531 677.207031 672.496094 C 677.230469 671.320312 676.507812 670.277344 675.339844 670.234375 Z M 674.082031 674.074219 L 674.082031 670.835938 C 674.640625 670.726562 675.460938 670.726562 675.949219 671.171875 C 676.679688 671.828125 676.648438 673.28125 675.734375 673.882812 C 675.277344 674.183594 674.570312 674.125 674.082031 674.074219 Z M 651.84375 670.085938 C 650.566406 670.085938 649.519531 671.121094 649.519531 672.410156 C 649.519531 673.695312 650.558594 674.734375 651.84375 674.734375 C 653.132812 674.734375 654.171875 673.695312 654.171875 672.410156 C 654.171875 671.121094 653.132812 670.085938 651.84375 670.085938 Z M 651.867188 674.117188 C 651.039062 674.113281 650.371094 673.476562 650.300781 672.589844 C 650.222656 671.601562 650.792969 670.855469 651.710938 670.785156 C 652.625 670.714844 653.460938 671.34375 653.410156 672.503906 C 653.367188 673.460938 652.660156 674.132812 651.867188 674.125 Z M 621.320312 670.085938 C 620.039062 670.085938 618.996094 671.121094 618.996094 672.410156 C 618.996094 673.695312 620.03125 674.734375 621.320312 674.734375 C 622.605469 674.734375 623.644531 673.695312 623.644531 672.410156 C 623.644531 671.121094 622.605469 670.085938 621.320312 670.085938 Z M 621.328125 674.125 C 620.496094 674.140625 619.847656 673.476562 619.761719 672.582031 C 619.660156 671.542969 620.355469 670.769531 621.320312 670.769531 C 622.285156 670.769531 622.9375 671.523438 622.851562 672.574219 C 622.777344 673.460938 622.140625 674.117188 621.320312 674.132812 Z M 722.273438 670.085938 C 720.988281 670.085938 719.949219 671.128906 719.949219 672.410156 C 719.949219 673.691406 720.996094 674.734375 722.273438 674.734375 C 723.554688 674.734375 724.597656 673.691406 724.597656 672.410156 C 724.597656 671.128906 723.554688 670.085938 722.273438 670.085938 Z M 722.269531 674.125 C 721.4375 674.097656 720.800781 673.46875 720.730469 672.566406 C 720.660156 671.601562 721.230469 670.851562 722.117188 670.777344 C 723.074219 670.699219 723.890625 671.335938 723.828125 672.496094 C 723.777344 673.480469 723.082031 674.148438 722.269531 674.117188 Z M 629.429688 674.578125 L 628.5 672.875 C 629.230469 672.582031 629.59375 672.007812 629.488281 671.292969 C 629.386719 670.640625 628.792969 670.140625 628.042969 670.164062 L 626.363281 670.207031 L 626.390625 674.546875 C 626.398438 674.71875 627.089844 674.65625 627.097656 674.460938 L 627.140625 672.972656 C 627.140625 672.800781 627.699219 672.84375 627.785156 673.003906 L 628.59375 674.453125 C 628.699219 674.648438 629.265625 674.675781 629.429688 674.570312 Z M 627.132812 672.308594 L 627.132812 670.75 C 627.476562 670.714844 628.078125 670.726562 628.4375 670.855469 C 628.636719 670.9375 628.816406 671.40625 628.800781 671.617188 C 628.785156 671.824219 628.429688 672.25 628.207031 672.257812 L 627.140625 672.308594 Z M 717.082031 674.519531 L 716.1875 672.886719 C 716.867188 672.574219 717.28125 672 717.167969 671.308594 C 717.066406 670.664062 716.472656 670.164062 715.730469 670.175781 L 714.050781 670.199219 L 714.070312 674.664062 C 714.351562 674.664062 714.765625 674.589844 714.773438 674.46875 L 714.828125 672.96875 C 714.828125 672.808594 715.378906 672.875 715.464844 673.023438 L 716.316406 674.503906 C 716.425781 674.691406 717.097656 674.707031 717.089844 674.519531 Z M 714.820312 672.34375 L 714.820312 670.800781 C 715.257812 670.757812 715.832031 670.75 716.203125 670.929688 C 716.675781 671.15625 716.574219 672.109375 716.03125 672.230469 C 715.625 672.316406 715.214844 672.335938 714.828125 672.34375 Z M 635.546875 674.503906 L 634.652344 672.917969 C 635.375 672.539062 635.722656 672 635.625 671.292969 C 635.523438 670.585938 634.910156 670.164062 634.152344 670.171875 L 632.527344 670.183594 L 632.527344 674.597656 C 632.527344 674.597656 633.226562 674.613281 633.226562 674.613281 L 633.320312 672.84375 C 633.5 672.839844 633.886719 672.929688 633.972656 673.082031 L 634.765625 674.511719 C 634.871094 674.707031 635.523438 674.710938 635.550781 674.503906 Z M 633.304688 672.324219 L 633.292969 670.699219 C 633.785156 670.722656 634.242188 670.726562 634.664062 670.929688 C 634.964844 671.070312 634.902344 671.679688 634.800781 672.152344 C 634.179688 672.25 633.820312 672.292969 633.3125 672.324219 Z M 710.292969 673.453125 C 710.292969 673.902344 709.578125 674.167969 709.207031 674.132812 C 708.914062 674.105469 708.355469 673.824219 708.347656 673.417969 L 708.277344 670.261719 C 707.199219 669.132812 707.605469 673.1875 707.632812 673.496094 C 707.707031 674.417969 708.679688 674.769531 709.371094 674.75 C 710.066406 674.726562 710.980469 674.320312 711.039062 673.410156 C 711.382812 668.261719 710.34375 670.65625 710.34375 670.378906 L 710.292969 673.445312 Z M 666.136719 674.605469 C 666.1875 674.75 666.84375 674.589844 666.792969 674.433594 L 665.335938 670.285156 C 665.121094 670.164062 664.5625 670.164062 664.375 670.269531 L 662.867188 674.578125 C 663.253906 674.710938 663.632812 674.65625 663.695312 674.425781 L 663.898438 673.769531 L 665.855469 673.804688 L 666.144531 674.605469 Z M 664.125 673.203125 L 664.828125 670.972656 L 665.605469 673.109375 C 665.335938 673.160156 664.664062 673.195312 664.125 673.203125 Z M 659.976562 674.578125 L 658.941406 672.78125 C 659.675781 672.773438 660.136719 672.03125 660.050781 671.378906 C 659.96875 670.777344 659.414062 670.183594 658.746094 670.191406 L 656.929688 670.191406 C 656.929688 670.191406 656.910156 674.28125 656.910156 674.28125 C 656.910156 674.417969 657.152344 674.710938 657.289062 674.71875 C 657.425781 674.726562 657.617188 674.441406 657.625 674.304688 L 657.667969 672.953125 C 657.6875 672.859375 658.195312 672.824219 658.261719 672.9375 L 659.140625 674.492188 C 659.242188 674.667969 659.777344 674.699219 659.976562 674.582031 Z M 657.667969 672.308594 L 657.652344 670.765625 C 658.066406 670.726562 658.570312 670.722656 658.953125 670.855469 C 659.40625 671.007812 659.503906 671.859375 659.011719 672.117188 C 658.632812 672.316406 658.105469 672.324219 657.667969 672.308594 Z M 691.535156 672.335938 C 691.003906 672.136719 690.445312 671.953125 689.96875 671.714844 C 689.722656 671.601562 689.867188 670.820312 690.125 670.777344 C 690.425781 670.722656 690.90625 670.734375 691.078125 670.894531 L 691.578125 671.359375 C 691.664062 671.4375 692.085938 671.121094 692.054688 670.992188 C 691.933594 670.421875 690.996094 669.96875 690.28125 670.113281 C 689.601562 670.257812 689.09375 670.664062 689.046875 671.316406 C 688.921875 672.757812 690.90625 672.472656 691.332031 673.160156 C 691.597656 673.574219 691.183594 674.089844 690.867188 674.125 C 689.582031 674.269531 690.375 673.394531 689.179688 673.425781 C 689.007812 673.425781 689.109375 673.984375 689.230469 674.125 C 689.882812 674.914062 691.226562 674.949219 691.921875 674.140625 C 692.464844 673.511719 692.199219 672.589844 691.535156 672.335938 Z M 730.355469 673.8125 C 730.472656 673.460938 730.371094 672.660156 730.078125 672.523438 L 728.183594 671.695312 C 727.984375 671.585938 728.03125 670.949219 728.234375 670.855469 C 729.492188 670.25 729.296875 671.628906 730.164062 671.292969 C 730.527344 670.621094 729.597656 670.148438 728.976562 670.121094 C 728.40625 670.09375 727.761719 670.3125 727.476562 670.664062 C 727.238281 670.957031 727.144531 671.765625 727.453125 672.058594 C 728.296875 672.867188 729.691406 672.695312 729.613281 673.390625 C 729.585938 673.632812 729.476562 674.003906 729.296875 674.074219 C 729.121094 674.148438 728.503906 674.148438 728.375 674.003906 L 727.941406 673.496094 C 727.832031 673.375 727.265625 673.496094 727.265625 673.652344 C 727.390625 674.375 728.320312 674.941406 729.242188 674.683594 C 729.75 674.546875 730.25 674.15625 730.363281 673.8125 Z M 613.523438 670.894531 C 615.195312 670.070312 615.253906 671.972656 616.3125 671.359375 C 615.710938 669.949219 613.902344 669.753906 612.777344 670.644531 C 611.640625 671.535156 611.683594 673.347656 612.894531 674.242188 C 613.9375 675.011719 615.675781 674.796875 616.304688 673.453125 C 615.277344 672.859375 615.039062 674.820312 613.453125 673.855469 C 613.035156 673.605469 612.738281 673.046875 612.738281 672.332031 C 612.738281 671.644531 613.128906 671.09375 613.523438 670.898438 Z M 681.984375 672.074219 L 680.71875 672.058594 L 680.742188 670.800781 L 682.300781 670.726562 C 682.445312 670.726562 682.4375 670.183594 682.285156 670.183594 L 679.953125 670.183594 C 679.953125 670.183594 679.953125 674.664062 679.953125 674.664062 L 682.136719 674.699219 C 682.242188 674.699219 682.558594 674.449219 682.5 674.367188 C 682.457031 674.320312 682.320312 674.113281 682.257812 674.113281 L 680.734375 674.074219 L 680.734375 672.753906 C 680.734375 672.753906 682.25 672.703125 682.25 672.703125 C 682.25 672.417969 682.15625 672.074219 682.007812 672.074219 Z M 641.015625 672.316406 C 640.960938 672.257812 640.789062 672.058594 640.710938 672.058594 L 639.429688 672.058594 C 639.429688 672.058594 639.402344 670.734375 639.402344 670.734375 L 641.039062 670.707031 C 641.167969 670.707031 641.039062 670.15625 640.886719 670.15625 L 638.683594 670.175781 L 638.683594 674.664062 C 638.683594 674.664062 640.894531 674.683594 640.894531 674.683594 C 640.980469 674.683594 641.253906 674.40625 641.195312 674.347656 C 641.136719 674.289062 640.972656 674.105469 640.886719 674.105469 L 639.421875 674.082031 L 639.421875 672.679688 C 639.421875 672.679688 640.6875 672.660156 640.6875 672.660156 C 640.789062 672.660156 641.066406 672.367188 641.015625 672.308594 Z M 697.226562 672.109375 L 695.824219 672.050781 L 695.855469 670.792969 L 697.5625 670.742188 L 697.5625 670.183594 C 697.5625 670.183594 695.082031 670.171875 695.082031 670.171875 L 695.097656 674.667969 L 697.347656 674.683594 C 697.421875 674.683594 697.636719 674.425781 697.613281 674.355469 C 697.59375 674.28125 697.441406 674.105469 697.363281 674.105469 L 695.839844 674.082031 L 695.820312 672.765625 L 697.121094 672.710938 C 697.285156 672.710938 697.363281 672.101562 697.214844 672.09375 Z M 645.84375 670.722656 C 646.539062 670.757812 646.988281 671.007812 647.089844 670.207031 L 644.328125 670.171875 C 644.191406 670.171875 643.941406 670.234375 643.847656 670.277344 C 643.757812 670.320312 643.898438 670.722656 644 670.726562 L 645.058594 670.828125 L 645.128906 674.554688 C 645.128906 674.75 645.832031 674.621094 645.832031 674.449219 L 645.84375 670.726562 Z M 645.84375 670.722656 " fill-opacity="1" fill-rule="nonzero"/><g clip-path="url(#a2cbd285ec)"><path fill="#ff0786" d="M 773.148438 705.859375 L 58.554688 705.859375 C 48.59375 705.859375 40.480469 697.75 40.480469 687.785156 L 40.480469 620.019531 C 40.480469 610.054688 48.59375 601.945312 58.554688 601.945312 L 773.148438 601.945312 C 783.113281 601.945312 791.222656 610.054688 791.222656 620.019531 L 791.222656 687.785156 C 791.222656 697.75 783.113281 705.859375 773.148438 705.859375 Z M 58.554688 605.40625 C 50.496094 605.40625 43.941406 611.964844 43.941406 620.019531 L 43.941406 687.785156 C 43.941406 695.847656 50.503906 702.398438 58.554688 702.398438 L 773.148438 702.398438 C 781.210938 702.398438 787.761719 695.839844 787.761719 687.785156 L 787.761719 620.019531 C 787.761719 611.957031 781.203125 605.40625 773.148438 605.40625 Z M 58.554688 605.40625 " fill-opacity="1" fill-rule="nonzero"/></g><g clip-path="url(#a3a9ef92db)"><path fill="#ff0786" d="M 426.238281 293.425781 L 412.699219 279.863281 L 409.199219 293.0625 C 408.566406 295.457031 409.1875 297.625 410.808594 299.320312 L 414.878906 303.253906 C 415.625 303.96875 417.0625 303.875 417.90625 302.945312 C 420.625 299.964844 422.96875 297.652344 426.117188 295.128906 C 426.488281 294.828125 426.558594 293.761719 426.238281 293.433594 Z M 471.890625 227.503906 C 468.371094 227.324219 464.839844 227.503906 461.277344 227.773438 C 447.417969 228.832031 439.375 229.984375 426 233.796875 C 425.5 233.933594 424.613281 234.828125 424.476562 235.363281 L 421.824219 246.234375 C 438.90625 235.121094 452.367188 231.078125 472.007812 228.402344 L 473.277344 228.230469 L 477.714844 227.804688 L 471.898438 227.496094 Z M 533.78125 293.175781 C 524.527344 283.433594 502.496094 281.839844 489.945312 282.347656 C 489.101562 282.382812 488.128906 282.539062 487.417969 282.648438 L 489.507812 283.078125 C 496.453125 284.5 501.429688 285.464844 507.546875 289.046875 C 512.902344 292.179688 516.792969 296.9375 518.632812 302.847656 C 520.8125 309.820312 520.820312 317.300781 517.816406 323.964844 C 515.414062 329.296875 511.074219 333.394531 505.523438 335.308594 C 500.738281 336.960938 495.886719 337.828125 490.710938 338.730469 C 490.367188 338.785156 489.785156 339.007812 489.0625 339.273438 L 491.175781 339.464844 C 500.351562 340.351562 514.082031 338.414062 522.980469 336.089844 C 527.453125 334.910156 533.101562 332.691406 535.957031 328.902344 C 544.074219 318.066406 543.179688 303.058594 533.789062 293.175781 Z M 478.992188 508.570312 L 463.695312 506.429688 C 437.179688 502.734375 410.238281 487.207031 390.96875 468.757812 C 389.847656 467.695312 389.917969 466.183594 390.96875 465.132812 L 406.117188 450.019531 L 417.789062 438.367188 L 412.589844 433.820312 C 411.210938 432.617188 410.007812 431.28125 408.816406 429.90625 C 407.941406 428.898438 406.320312 428.621094 405.222656 429.714844 L 401.804688 433.15625 L 372.894531 462.066406 L 369.878906 465.070312 C 368.867188 466.078125 368.8125 467.878906 369.882812 468.839844 L 376.871094 475.039062 C 396.5 492.46875 421.875 503.054688 447.710938 507.082031 C 456.722656 508.484375 465.589844 509.019531 474.789062 509.164062 C 476.175781 509.191406 477.542969 509.042969 478.988281 508.863281 C 479.835938 508.632812 479.867188 508.570312 479.015625 508.570312 Z M 540.589844 416.875 C 538.601562 408.359375 532.179688 402.457031 524.148438 399.660156 C 511.859375 395.375 498.0625 393.367188 485.039062 392.695312 L 474.789062 392.164062 C 473.285156 392.085938 472.042969 390.878906 472.042969 389.339844 L 472.09375 377.429688 L 472.136719 341.863281 C 472.136719 340.847656 471.355469 339.808594 470.359375 339.773438 L 453.511719 339.207031 C 451.777344 339.152344 450.613281 340.039062 450.613281 341.898438 L 450.613281 385.199219 C 450.613281 385.199219 450.570312 389.90625 450.570312 389.90625 C 450.5625 390.605469 451.714844 391.683594 452.359375 391.722656 L 462.523438 392.265625 C 475.609375 392.957031 506.6875 396.042969 514.785156 407.390625 C 519.941406 414.628906 521.472656 423.5625 519.054688 432.039062 C 516.644531 440.480469 510.644531 447.46875 502.289062 449.941406 L 490.050781 453.574219 C 495.179688 454.152344 499.765625 454.003906 504.679688 453.667969 C 513.273438 453.089844 521.894531 451.066406 529.375 446.746094 C 534.816406 443.605469 538.582031 438.597656 540.234375 432.605469 C 541.65625 427.433594 541.792969 422.082031 540.589844 416.875 Z M 363.675781 225.214844 C 363.40625 224.992188 362.695312 224.777344 362.21875 224.777344 L 333.972656 224.777344 C 332.585938 224.769531 331.476562 225.621094 331.132812 226.964844 L 317.644531 280.1875 L 301.398438 344.207031 C 301.148438 345.167969 301.214844 346.28125 301.449219 347.226562 L 317.144531 408.664062 C 318.144531 407.097656 318.371094 405.875 318.765625 404.300781 L 356.675781 255.539062 L 363.996094 226.851562 C 364.097656 226.480469 363.949219 225.441406 363.683594 225.214844 Z M 252.886719 357.109375 L 239.125 306.652344 L 223.089844 365.101562 C 223.089844 366.394531 223.160156 367.222656 223.394531 368.597656 L 241.089844 433.433594 L 260.453125 504.679688 C 260.796875 505.921875 261.839844 506.722656 263.0625 506.722656 L 291.792969 506.695312 C 292.144531 506.695312 293.074219 506.503906 293.089844 506.195312 L 293.203125 504.628906 L 252.894531 357.109375 Z M 58.242188 253.128906 L 54.929688 241.148438 L 51.460938 226.765625 C 51.273438 225.980469 50.238281 224.800781 49.40625 224.800781 L 22.042969 224.769531 C 21.734375 224.769531 21.398438 224.804688 21.054688 224.863281 C 19.648438 225.113281 18.601562 226.402344 18.800781 227.824219 C 18.808594 227.894531 18.824219 227.960938 18.839844 228.015625 L 31.527344 275.417969 L 85.691406 478.078125 L 92.800781 504.785156 C 92.921875 506.066406 93.738281 506.753906 94.925781 506.746094 L 125.960938 506.53125 Z M 209.007812 225.113281 C 208.699219 224.90625 208.15625 224.777344 207.324219 224.777344 L 183.265625 224.761719 C 182.898438 224.761719 182.335938 224.363281 182.484375 224.363281 L 179.230469 224.363281 L 178.421875 224.804688 C 177.707031 225.179688 176.46875 226.257812 176.277344 227.152344 L 175.183594 232.203125 L 158.039062 296.921875 L 145.191406 345.445312 C 144.871094 346.683594 145.105469 348.070312 145.355469 349.078125 L 150.628906 369.578125 L 160.914062 409.136719 L 179.960938 337.636719 L 200.808594 258.867188 L 209.320312 226.835938 C 209.421875 226.445312 209.3125 225.300781 209.007812 225.105469 Z M 790.714844 340.101562 C 790.394531 339.738281 789.105469 339.128906 788.347656 339.128906 L 763.757812 339.179688 L 722.046875 339.179688 L 698.695312 339.144531 C 697.214844 339.136719 695.941406 340.386719 695.945312 341.71875 L 695.960938 348.515625 L 695.960938 391.078125 C 695.945312 392.492188 697.234375 393.59375 698.699219 393.589844 L 723.226562 393.496094 L 731.523438 393.460938 C 732.300781 393.460938 733.332031 394.652344 733.324219 395.363281 L 733.296875 401.242188 L 733.296875 437.746094 C 733.304688 438.675781 732.339844 440.273438 731.421875 440.800781 C 727.503906 443.0625 723.828125 445 719.664062 446.34375 C 701.21875 452.292969 681.605469 452.378906 662.695312 447.773438 C 656.585938 446.28125 649.472656 443.488281 643.855469 440.386719 C 634.824219 435.378906 627.3125 428.757812 621.289062 420.480469 C 613.660156 410.003906 608.789062 398.144531 606.542969 385.261719 C 604.402344 372.996094 604.738281 358.5 607.351562 346.316406 C 610.449219 331.871094 617.429688 319.054688 627.742188 308.574219 C 641.761719 294.328125 659.207031 287.21875 679.03125 285.695312 C 700.960938 284 721.945312 288.285156 740.734375 299.554688 C 744.503906 301.816406 747.78125 304.160156 751.363281 306.785156 C 752.121094 307.335938 753.667969 307.636719 754.433594 306.792969 L 767.984375 291.929688 L 790.066406 267.800781 C 791.09375 266.675781 791.132812 264.789062 789.992188 263.835938 C 784.644531 259.375 778.679688 254.789062 772.722656 251.027344 C 759.109375 242.429688 744.425781 236 728.648438 232.050781 L 727.8125 231.835938 C 706.867188 226.601562 684.175781 226.070312 662.625 229.234375 C 633.390625 233.53125 608.851562 246.734375 587.722656 267.347656 C 586.34375 268.691406 586.335938 270.257812 587.273438 271.882812 C 600.132812 294.140625 600.800781 316.558594 592.765625 340.515625 C 588.898438 352.074219 580.894531 360.085938 570.414062 365.800781 L 570.414062 366.472656 C 578.8125 369.761719 586.195312 373.875 591.792969 380.734375 C 604.789062 396.621094 606.464844 416.21875 604.511719 435.980469 C 603.273438 448.570312 597.679688 459.246094 590.097656 469.054688 C 589.554688 469.753906 589.578125 471.011719 590.214844 471.578125 C 593.511719 474.539062 596.5 477.15625 600.046875 479.929688 C 611.964844 489.292969 624.96875 496.4375 639.25 501.339844 C 651.316406 505.472656 663.617188 507.910156 676.3125 508.769531 C 688.601562 509.601562 700.667969 509.113281 713.019531 507.367188 C 731.765625 504.722656 749.375 498.828125 765.789062 489.585938 C 774.09375 484.917969 781.753906 479.480469 789.171875 473.328125 C 789.292969 473.238281 789.65625 472.929688 789.671875 472.894531 L 790.78125 471.3125 L 791.210938 470.382812 L 791.210938 341.023438 L 790.714844 340.09375 Z M 790.714844 340.101562 " fill-opacity="1" fill-rule="nonzero"/></g><path fill="#ff0786" d="M 291.875 154.625 L 297.789062 154.625 L 297.789062 176.855469 C 292.296875 181.761719 284.464844 184.265625 276.386719 184.265625 C 258.652344 184.265625 245.660156 171.691406 245.660156 154.625 C 245.660156 137.5625 258.652344 124.980469 276.46875 124.980469 C 285.292969 124.980469 292.953125 127.8125 298.117188 133.390625 L 294.285156 137.304688 C 289.371094 132.476562 283.539062 130.472656 276.710938 130.472656 C 262.304688 130.472656 251.726562 140.714844 251.726562 154.621094 C 251.726562 168.523438 262.304688 178.765625 276.625 178.765625 C 282.203125 178.765625 287.367188 177.523438 291.859375 174.273438 L 291.859375 154.625 Z M 291.875 154.625 " fill-opacity="1" fill-rule="nonzero"/><path fill="#ff0786" d="M 355.023438 183.765625 L 341.695312 165.035156 C 340.203125 165.199219 338.699219 165.285156 337.035156 165.285156 L 321.382812 165.285156 L 321.382812 183.765625 L 315.21875 183.765625 L 315.21875 125.480469 L 337.035156 125.480469 C 351.859375 125.480469 360.851562 132.96875 360.851562 145.464844 C 360.851562 154.625 356.023438 161.027344 347.527344 163.78125 L 361.765625 183.757812 L 355.023438 183.757812 Z M 354.691406 145.472656 C 354.691406 136.144531 348.527344 130.816406 336.867188 130.816406 L 321.382812 130.816406 L 321.382812 160.042969 L 336.867188 160.042969 C 348.527344 160.042969 354.691406 154.632812 354.691406 145.472656 Z M 354.691406 145.472656 " fill-opacity="1" fill-rule="nonzero"/><path fill="#ff0786" d="M 374.957031 158.875 L 374.957031 125.480469 L 381.113281 125.480469 L 381.113281 158.617188 C 381.113281 172.445312 387.609375 178.765625 398.9375 178.765625 C 410.265625 178.765625 416.839844 172.445312 416.839844 158.617188 L 416.839844 125.480469 L 422.832031 125.480469 L 422.832031 158.867188 C 422.832031 175.597656 413.84375 184.265625 398.9375 184.265625 C 384.03125 184.265625 374.957031 175.605469 374.957031 158.867188 Z M 374.957031 158.875 " fill-opacity="1" fill-rule="nonzero"/><path fill="#ff0786" d="M 487.0625 145.472656 C 487.0625 157.882812 478.070312 165.371094 463.246094 165.371094 L 447.59375 165.371094 L 447.59375 183.773438 L 441.429688 183.773438 L 441.429688 125.480469 L 463.246094 125.480469 C 478.070312 125.480469 487.0625 132.96875 487.0625 145.464844 Z M 480.902344 145.472656 C 480.902344 136.144531 474.738281 130.816406 463.078125 130.816406 L 447.59375 130.816406 L 447.59375 159.960938 L 463.078125 159.960938 C 474.738281 159.960938 480.902344 154.632812 480.902344 145.472656 Z M 480.902344 145.472656 " fill-opacity="1" fill-rule="nonzero"/><path fill="#ff0786" d="M 496.089844 154.625 C 496.089844 137.640625 509.078125 124.980469 526.730469 124.980469 C 544.382812 124.980469 557.292969 137.554688 557.292969 154.625 C 557.292969 171.699219 544.214844 184.265625 526.730469 184.265625 C 509.242188 184.265625 496.089844 171.605469 496.089844 154.625 Z M 551.132812 154.625 C 551.132812 140.722656 540.726562 130.480469 526.734375 130.480469 C 512.746094 130.480469 502.175781 140.722656 502.175781 154.625 C 502.175781 168.53125 512.667969 178.773438 526.734375 178.773438 C 540.804688 178.773438 551.132812 168.539062 551.132812 154.625 Z M 551.132812 154.625 " fill-opacity="1" fill-rule="nonzero"/></svg>